# xmcd
# Copyright (C) 1995-1998 Ti Kan
#
# Track frame offsets:
#       150
#       16704
#       35161
#       54245
#       67163
#       84348
#       104997
#       122036
#       138338
#       156183
#       173620
#       189345
#       197900
#       211137
#
# Disc length: 3094 seconds
#
# Revision: 0
# Processed by: cddbd v1.5.2PL0 Copyright (c) Steve Scherf et al.
# Submitted via: CD-Import v1.0
#
DISCID=c10c140e
DTITLE=Elijah - Beweg Di
DYEAR=2007
DGENRE=
TTITLE0=Uf Mim Wäg
TTITLE1=Gib Mer Meh
TTITLE2=Las Bliebe (Paco Mendoza)
TTITLE3=Beweg Di
TTITLE4=Cha Nöd Warte
TTITLE5=Nur So
TTITLE6=Egal Was
TTITLE7=Root Kid
TTITLE8=Falschi Gschichte
TTITLE9=Alles Nur Um S Glich
TTITLE10=Chum Nöcher
TTITLE11=Alles Nur Um Club
TTITLE12=De Vibe
TTITLE13=Sie Isch Wäg
EXTD=
EXTT0=
EXTT1=
EXTT2=
EXTT3=
EXTT4=
EXTT5=
EXTT6=
EXTT7=
EXTT8=
EXTT9=
EXTT10=
EXTT11=
EXTT12=
EXTT13=
PLAYORDER=
